<svg width="21" height="20" viewBox="0 0 21 20" fill="none" xmlns="http://www.w3.org/2000/svg">
<path fill-rule="evenodd" clip-rule="evenodd" d="M10.005 0C4.49718 0 0.00499573 4.49219 0.00499573 10C0.00499573 11.9531 0.551871 13.7891 1.60656 15.4297L0.0831207 18.75C-0.0731293 19.0625 0.00499573 19.4141 0.200308 19.6875C0.356558 19.8828 0.629996 20 0.864371 20C0.942496 20 1.02062 20 1.09875 19.9609L5.27843 18.8281C6.72375 19.6094 8.32531 20 10.005 20C15.5128 20 20.005 15.5078 20.005 10C20.005 4.49219 15.5128 0 10.005 0ZM10.005 18.2422C8.55968 18.2422 7.11437 17.8516 5.86437 17.1094C5.74718 17.0312 5.59093 16.9922 5.43468 16.9922C5.35656 16.9922 5.27843 16.9922 5.20031 17.0312L2.46593 17.7734L3.40343 15.6641C3.52062 15.3906 3.48156 15.0391 3.32531 14.8047C2.30968 13.3984 1.76281 11.7188 1.76281 10C1.76281 5.46875 5.47375 1.75781 10.005 1.75781C14.5362 1.75781 18.2472 5.46875 18.2472 10C18.2472 14.5312 14.5362 18.2422 10.005 18.2422Z" fill="white"/>
<path fill-rule="evenodd" clip-rule="evenodd" d="M13.8331 11.4844C13.4034 11.25 12.8566 10.9375 12.3878 11.1719C11.9972 11.3281 11.7628 11.9141 11.5284 12.2266C11.4112 12.3828 11.255 12.4219 11.0597 12.3437C9.65343 11.7969 8.55968 10.8203 7.77843 9.53125C7.66124 9.33594 7.66124 9.17969 7.81749 8.98438C8.05187 8.71094 8.36437 8.39844 8.40343 8.00781C8.48156 7.61719 8.28624 7.1875 8.12999 6.875C7.93468 6.44531 7.70031 5.82031 7.27062 5.58594C6.88 5.35156 6.37218 5.46875 6.02062 5.78125C5.43468 6.28906 5.12218 7.03125 5.12218 7.8125C5.12218 8.04688 5.16125 8.24219 5.20031 8.4375C5.3175 8.94531 5.55187 9.41406 5.82531 9.84375C6.02062 10.1953 6.255 10.5078 6.48937 10.8203C7.23156 11.8359 8.20812 12.7344 9.30187 13.4375C9.84874 13.7891 10.4347 14.0625 11.0597 14.2578C11.7628 14.4922 12.3487 14.7266 13.0909 14.5703C13.8722 14.4141 14.6144 13.9453 14.9269 13.2031C15.005 12.9688 15.0441 12.7344 15.005 12.5C14.8878 12.0312 14.2237 11.7188 13.8331 11.4844Z" fill="white"/>
</svg>
