<svg width="1920" height="270" viewBox="0 0 1920 270" fill="none" xmlns="http://www.w3.org/2000/svg">
<path opacity="0.3" fill-rule="evenodd" clip-rule="evenodd" d="M985.783 166.51C978.499 159.923 968.921 156.455 959.107 156.851C949.293 157.247 940.026 161.477 933.297 168.63C909.302 156.22 881.693 152.684 855.344 158.647C828.996 164.61 805.601 179.688 789.289 201.22C779.824 195.407 768.695 192.908 757.653 194.118C746.612 195.327 736.287 200.176 728.306 207.9C684.556 145.12 590 152.25 560.57 214.37L556.695 214.39C533.113 203.495 506.531 200.932 481.302 207.12C456.073 213.309 433.694 227.881 417.832 248.45C406.804 234.311 391.512 224.103 374.224 219.338C356.935 214.574 338.572 215.508 321.856 222C316.048 203.917 306.543 187.239 293.946 173.023C281.348 158.808 265.933 147.366 248.678 139.425C231.423 131.483 212.705 127.214 193.713 126.89C174.72 126.566 155.868 130.193 138.351 137.54C138.698 134.03 138.883 130.48 138.883 126.88C138.871 110.109 134.914 93.5763 127.333 78.6161C119.752 63.6559 108.759 50.6875 95.2412 40.7587C81.7234 30.8298 66.0599 24.2184 49.5155 21.4584C32.9711 18.6983 16.0094 19.867 0 24.87L0 262.82H1920V24.87C1903.99 19.8669 1887.03 18.6984 1870.48 21.4584C1853.94 24.2183 1838.28 30.8294 1824.76 40.7582C1811.24 50.687 1800.25 63.6553 1792.66 78.6156C1785.08 93.5759 1781.13 110.109 1781.11 126.88C1781.11 130.48 1781.3 134.03 1781.65 137.54C1764.14 130.193 1745.28 126.566 1726.29 126.89C1707.3 127.214 1688.58 131.483 1671.32 139.425C1654.07 147.366 1638.65 158.808 1626.05 173.023C1613.45 187.238 1603.95 203.917 1598.14 222C1581.42 215.507 1563.06 214.574 1545.77 219.338C1528.49 224.103 1513.2 234.311 1502.17 248.45C1486.3 227.881 1463.93 213.309 1438.7 207.12C1413.47 200.932 1386.88 203.495 1363.3 214.39C1354.72 199.708 1342.54 187.456 1327.91 178.789C1313.28 170.122 1296.68 165.328 1279.68 164.858C1262.68 164.389 1245.85 168.26 1230.76 176.106C1215.67 183.952 1202.83 195.514 1193.46 209.7C1185.58 201.267 1175.03 195.816 1163.6 194.271C1152.16 192.725 1140.54 195.18 1130.71 201.22C1101.21 162.29 1035.85 138.9 985.783 166.51Z" fill="white"/>
<path fill-rule="evenodd" clip-rule="evenodd" d="M981.58 162.32C973.507 155.02 962.893 151.176 952.017 151.614C941.142 152.051 930.871 156.735 923.41 164.66C896.815 150.912 866.219 146.997 837.019 153.603C807.818 160.209 781.888 176.913 763.8 200.77C753.31 194.328 740.975 191.56 728.739 192.9C716.502 194.24 705.059 199.612 696.211 208.17C647.721 138.61 542.921 146.52 510.303 215.33L506.003 215.36C479.868 203.292 450.411 200.452 422.452 207.307C394.494 214.161 369.69 230.303 352.1 253.09C339.87 237.426 322.92 226.118 303.76 220.841C284.601 215.563 264.251 216.597 245.725 223.79C239.274 203.755 228.732 185.278 214.766 169.531C200.8 153.784 183.715 141.11 164.594 132.312C145.473 123.514 124.733 118.785 103.688 118.423C82.6429 118.061 61.7522 122.075 42.34 130.21C42.724 126.33 42.93 122.39 42.93 118.41C42.907 99.8249 38.5149 81.5057 30.1084 64.9305C21.7018 48.3554 9.51623 33.9888 -5.46494 22.9901C-20.4461 11.9914 -37.8032 4.66865 -56.1354 1.61315C-74.4676 -1.44235 -93.2614 -0.144859 -111 5.40026V269.01H2017.01V5.40026C1999.27 -0.144859 1980.48 -1.44235 1962.15 1.61315C1943.81 4.66865 1926.46 11.9914 1911.47 22.9901C1896.49 33.9888 1884.31 48.3554 1875.9 64.9305C1867.5 81.5057 1863.1 99.8249 1863.08 118.41C1863.08 122.39 1863.29 126.33 1863.67 130.21C1844.26 122.075 1823.37 118.06 1802.32 118.422C1781.28 118.784 1760.54 123.514 1741.42 132.312C1722.3 141.11 1705.21 153.784 1691.25 169.531C1677.28 185.278 1666.74 203.755 1660.29 223.79C1641.76 216.598 1621.41 215.564 1602.25 220.841C1583.09 226.118 1566.14 237.426 1553.91 253.09C1536.32 230.302 1511.51 214.16 1483.55 207.306C1455.59 200.451 1426.14 203.291 1400 215.36C1390.49 199.093 1376.99 185.518 1360.77 175.916C1344.56 166.314 1326.16 161.003 1307.32 160.482C1288.49 159.962 1269.83 164.25 1253.11 172.942C1236.39 181.634 1222.16 194.443 1211.76 210.16C1203.03 200.818 1191.33 194.78 1178.66 193.069C1165.98 191.358 1153.11 194.078 1142.21 200.77C1109.51 157.64 1037.08 131.72 981.58 162.32Z" fill="#F5F5F5"/>
</svg>
