<svg width="30" height="31" viewBox="0 0 30 31" fill="none" xmlns="http://www.w3.org/2000/svg">
<path fill-rule="evenodd" clip-rule="evenodd" d="M0 14.8765C0.185098 6.77113 6.89326 0.343089 15 0.502917C23.1067 0.343089 29.8149 6.77114 30 14.8766C29.8149 22.9819 23.1067 29.41 15 29.2501C13.0997 29.2539 11.2149 28.9078 9.43998 28.229L5.95623 30.405C5.85691 30.4671 5.74213 30.5 5.625 30.5C5.27982 30.5 4.99998 30.2202 4.99998 29.875V25.5754C1.84828 22.9123 0.0211523 19.0024 0 14.8765ZM24.075 10.5769C24.3481 10.4281 24.689 10.5027 24.875 10.7519C25.062 10.9998 25.0386 11.3474 24.82 11.568L17.32 19.0673C17.0891 19.2983 16.7193 19.3124 16.4713 19.0998L12.4238 15.6314L5.92384 19.1748C5.6812 19.3064 5.38103 19.2633 5.18527 19.0687C4.9404 18.8254 4.93923 18.4297 5.18257 18.1849L12.6826 10.6856C12.9135 10.4547 13.2833 10.4406 13.5313 10.6531L17.575 14.1203L24.075 10.5769Z" fill="#2196F3"/>
</svg>
