<svg width="16" height="16" viewBox="0 0 16 16" fill="none" xmlns="http://www.w3.org/2000/svg">
<path d="M16 8C16 12.4615 12.4615 16 8 16C3.53846 16 0 12.4615 0 8C0 3.53846 3.53846 0 8 0C12.4615 0 16 3.53846 16 8ZM11.2308 9.84615C11.2308 8.46154 10.4615 7.69231 8.76923 7.07692C7.53846 6.61538 7.07692 6.30769 7.07692 5.84615C7.07692 5.38462 7.38462 5.07692 8.30769 5.07692C9.38462 5.07692 10 5.38462 10.4615 5.53846L10.9231 3.84615C10.3077 3.53846 9.69231 3.38462 8.76923 3.38462V2.92308C8.76923 2.46154 8.46154 2.15385 8 2.15385C7.53846 2.15385 7.23077 2.61538 7.23077 2.92308V3.23077C7.23077 3.23077 7.23077 3.23077 7.23077 3.38462V3.53846C5.69231 3.84615 4.76923 4.76923 4.76923 6.15385C4.76923 7.53846 5.84615 8.30769 7.38462 8.76923C8.46154 9.07692 8.92308 9.53846 8.92308 10C8.92308 10.6154 8.30769 10.9231 7.53846 10.9231C6.61539 10.9231 5.69231 10.6154 5.07692 10.3077L4.76923 12C5.38462 12.3077 6.30769 12.6154 7.23077 12.6154V12.9231C7.23077 13.3846 7.53846 13.6923 8 13.6923C8.46154 13.6923 8.76923 13.3846 8.76923 12.9231V12.6154C10.4615 12.3077 11.2308 11.0769 11.2308 9.84615Z" fill="#3F413E"/>
</svg>
